%TF.GenerationSoftware,KiCad,Pcbnew,7.0.9*%
%TF.CreationDate,2025-02-20T13:49:26-05:00*%
%TF.ProjectId,SOIC16_2_SO16_panelized,534f4943-3136-45f3-925f-534f31365f70,rev?*%
%TF.SameCoordinates,Original*%
%TF.FileFunction,Copper,L1,Top*%
%TF.FilePolarity,Positive*%
%FSLAX46Y46*%
G04 Gerber Fmt 4.6, Leading zero omitted, Abs format (unit mm)*
G04 Created by KiCad (PCBNEW 7.0.9) date 2025-02-20 13:49:26*
%MOMM*%
%LPD*%
G01*
G04 APERTURE LIST*
%TA.AperFunction,SMDPad,CuDef*%
%ADD10R,1.500000X0.600000*%
%TD*%
%TA.AperFunction,Conductor*%
%ADD11C,0.508000*%
%TD*%
G04 APERTURE END LIST*
D10*
%TO.P,U2,12,~{INT}/SQW*%
%TO.N,N/C*%
X135132600Y-95885000D03*
%TO.P,U2,13,~{INT}/SQW*%
X135132600Y-94615000D03*
%TO.P,U2,5,~{INT}/SQW*%
X125832600Y-95885000D03*
%TO.P,U2,4,~{INT}/SQW*%
X125832600Y-94615000D03*
%TO.P,U2,16*%
X135132600Y-90805000D03*
%TO.P,U2,15*%
X135132600Y-92075000D03*
%TO.P,U2,14*%
X135132600Y-93345000D03*
%TO.P,U2,11*%
X135132600Y-97155000D03*
%TO.P,U2,10*%
X135132600Y-98425000D03*
%TO.P,U2,9*%
X135132600Y-99695000D03*
%TO.P,U2,8,SCL*%
%TO.N,Net-(U1-SCL)*%
X125832600Y-99695000D03*
%TO.P,U2,7,SDA*%
%TO.N,Net-(U1-SDA)*%
X125832600Y-98425000D03*
%TO.P,U2,6,VBAT*%
%TO.N,Net-(U1-VBAT)*%
X125832600Y-97155000D03*
%TO.P,U2,3,~{INT}/SQW*%
%TO.N,Net-(U1-~{INT}{slash}SQW)*%
X125832600Y-93345000D03*
%TO.P,U2,2,VCC*%
%TO.N,Net-(U1-VCC)*%
X125832600Y-92075000D03*
%TO.P,U2,1,32KHZ*%
%TO.N,Net-(U1-32KHZ)*%
X125832600Y-90805000D03*
%TD*%
D11*
%TO.N,*%
X135107200Y-99669600D02*
X135132600Y-99695000D01*
X132940600Y-99669600D02*
X135107200Y-99669600D01*
%TO.N,Net-(U1-SCL)*%
X125858000Y-99669600D02*
X125832600Y-99695000D01*
X127990600Y-99669600D02*
X125858000Y-99669600D01*
%TO.N,Net-(U1-SDA)*%
X127965200Y-98425000D02*
X125832600Y-98425000D01*
X127990600Y-98399600D02*
X127965200Y-98425000D01*
%TO.N,Net-(U1-VBAT)*%
X127990600Y-97129600D02*
X125858000Y-97129600D01*
X125858000Y-97129600D02*
X125832600Y-97155000D01*
%TO.N,Net-(U1-GND)*%
X127990600Y-95859600D02*
X125858000Y-95859600D01*
X125858000Y-95859600D02*
X125832600Y-95885000D01*
%TO.N,Net-(U1-~{RST})*%
X125858000Y-94589600D02*
X125832600Y-94615000D01*
X127990600Y-94589600D02*
X125858000Y-94589600D01*
%TO.N,*%
X132940600Y-98399600D02*
X135107200Y-98399600D01*
X135107200Y-98399600D02*
X135132600Y-98425000D01*
X135107200Y-97129600D02*
X135132600Y-97155000D01*
X132940600Y-97129600D02*
X135107200Y-97129600D01*
X135107200Y-95859600D02*
X135132600Y-95885000D01*
X132940600Y-95859600D02*
X135107200Y-95859600D01*
X135107200Y-94589600D02*
X135132600Y-94615000D01*
X132940600Y-94589600D02*
X135107200Y-94589600D01*
X132940600Y-93319600D02*
X135107200Y-93319600D01*
X135107200Y-93319600D02*
X135132600Y-93345000D01*
X135107200Y-92049600D02*
X135132600Y-92075000D01*
X132940600Y-92049600D02*
X135107200Y-92049600D01*
X135107200Y-90779600D02*
X135132600Y-90805000D01*
X132940600Y-90779600D02*
X135107200Y-90779600D01*
%TO.N,Net-(U1-~{INT}{slash}SQW)*%
X127965200Y-93345000D02*
X127990600Y-93319600D01*
X125832600Y-93345000D02*
X127965200Y-93345000D01*
%TO.N,Net-(U1-VCC)*%
X127965200Y-92075000D02*
X127990600Y-92049600D01*
X125832600Y-92075000D02*
X127965200Y-92075000D01*
%TO.N,Net-(U1-32KHZ)*%
X125832600Y-90805000D02*
X127965200Y-90805000D01*
X127965200Y-90805000D02*
X127990600Y-90779600D01*
%TD*%
M02*
