%TF.GenerationSoftware,KiCad,Pcbnew,7.0.9*%
%TF.CreationDate,2025-01-11T11:51:57-05:00*%
%TF.ProjectId,PropellerClock,50726f70-656c-46c6-9572-436c6f636b2e,rev?*%
%TF.SameCoordinates,Original*%
%TF.FileFunction,Drillmap*%
%TF.FilePolarity,Positive*%
%FSLAX45Y45*%
G04 Gerber Fmt 4.5, Leading zero omitted, Abs format (unit mm)*
G04 Created by KiCad (PCBNEW 7.0.9) date 2025-01-11 11:51:57*
%MOMM*%
%LPD*%
G01*
G04 APERTURE LIST*
%ADD10C,0.200000*%
%ADD11C,0.120000*%
G04 APERTURE END LIST*
D10*
X6985000Y-6985000D02*
X6985000Y-10287000D01*
X22225000Y-6985000D02*
X22225000Y-10287000D01*
X6985000Y-10287000D02*
X22225000Y-10287000D01*
X6985000Y-6985000D02*
X22225000Y-6985000D01*
D11*
X13729660Y-7712400D02*
X13849660Y-7832400D01*
X13849660Y-7712400D02*
X13729660Y-7832400D01*
X13729660Y-9236400D02*
X13849660Y-9356400D01*
X13849660Y-9236400D02*
X13729660Y-9356400D01*
X18301660Y-7712400D02*
X18421660Y-7832400D01*
X18421660Y-7712400D02*
X18301660Y-7832400D01*
X18301660Y-9236400D02*
X18421660Y-9356400D01*
X18421660Y-9236400D02*
X18301660Y-9356400D01*
D10*
X7235777Y-10608484D02*
X7235777Y-10408484D01*
X7235777Y-10408484D02*
X7283396Y-10408484D01*
X7283396Y-10408484D02*
X7311967Y-10418008D01*
X7311967Y-10418008D02*
X7331015Y-10437055D01*
X7331015Y-10437055D02*
X7340539Y-10456103D01*
X7340539Y-10456103D02*
X7350062Y-10494198D01*
X7350062Y-10494198D02*
X7350062Y-10522770D01*
X7350062Y-10522770D02*
X7340539Y-10560865D01*
X7340539Y-10560865D02*
X7331015Y-10579912D01*
X7331015Y-10579912D02*
X7311967Y-10598960D01*
X7311967Y-10598960D02*
X7283396Y-10608484D01*
X7283396Y-10608484D02*
X7235777Y-10608484D01*
X7435777Y-10608484D02*
X7435777Y-10475150D01*
X7435777Y-10513246D02*
X7445301Y-10494198D01*
X7445301Y-10494198D02*
X7454824Y-10484674D01*
X7454824Y-10484674D02*
X7473872Y-10475150D01*
X7473872Y-10475150D02*
X7492920Y-10475150D01*
X7559586Y-10608484D02*
X7559586Y-10475150D01*
X7559586Y-10408484D02*
X7550062Y-10418008D01*
X7550062Y-10418008D02*
X7559586Y-10427531D01*
X7559586Y-10427531D02*
X7569110Y-10418008D01*
X7569110Y-10418008D02*
X7559586Y-10408484D01*
X7559586Y-10408484D02*
X7559586Y-10427531D01*
X7683396Y-10608484D02*
X7664348Y-10598960D01*
X7664348Y-10598960D02*
X7654824Y-10579912D01*
X7654824Y-10579912D02*
X7654824Y-10408484D01*
X7788158Y-10608484D02*
X7769110Y-10598960D01*
X7769110Y-10598960D02*
X7759586Y-10579912D01*
X7759586Y-10579912D02*
X7759586Y-10408484D01*
X8016729Y-10608484D02*
X8016729Y-10408484D01*
X8016729Y-10408484D02*
X8083396Y-10551341D01*
X8083396Y-10551341D02*
X8150062Y-10408484D01*
X8150062Y-10408484D02*
X8150062Y-10608484D01*
X8331015Y-10608484D02*
X8331015Y-10503722D01*
X8331015Y-10503722D02*
X8321491Y-10484674D01*
X8321491Y-10484674D02*
X8302443Y-10475150D01*
X8302443Y-10475150D02*
X8264348Y-10475150D01*
X8264348Y-10475150D02*
X8245301Y-10484674D01*
X8331015Y-10598960D02*
X8311967Y-10608484D01*
X8311967Y-10608484D02*
X8264348Y-10608484D01*
X8264348Y-10608484D02*
X8245301Y-10598960D01*
X8245301Y-10598960D02*
X8235777Y-10579912D01*
X8235777Y-10579912D02*
X8235777Y-10560865D01*
X8235777Y-10560865D02*
X8245301Y-10541817D01*
X8245301Y-10541817D02*
X8264348Y-10532293D01*
X8264348Y-10532293D02*
X8311967Y-10532293D01*
X8311967Y-10532293D02*
X8331015Y-10522770D01*
X8426253Y-10475150D02*
X8426253Y-10675150D01*
X8426253Y-10484674D02*
X8445301Y-10475150D01*
X8445301Y-10475150D02*
X8483396Y-10475150D01*
X8483396Y-10475150D02*
X8502444Y-10484674D01*
X8502444Y-10484674D02*
X8511967Y-10494198D01*
X8511967Y-10494198D02*
X8521491Y-10513246D01*
X8521491Y-10513246D02*
X8521491Y-10570389D01*
X8521491Y-10570389D02*
X8511967Y-10589436D01*
X8511967Y-10589436D02*
X8502444Y-10598960D01*
X8502444Y-10598960D02*
X8483396Y-10608484D01*
X8483396Y-10608484D02*
X8445301Y-10608484D01*
X8445301Y-10608484D02*
X8426253Y-10598960D01*
X8607205Y-10589436D02*
X8616729Y-10598960D01*
X8616729Y-10598960D02*
X8607205Y-10608484D01*
X8607205Y-10608484D02*
X8597682Y-10598960D01*
X8597682Y-10598960D02*
X8607205Y-10589436D01*
X8607205Y-10589436D02*
X8607205Y-10608484D01*
X8607205Y-10484674D02*
X8616729Y-10494198D01*
X8616729Y-10494198D02*
X8607205Y-10503722D01*
X8607205Y-10503722D02*
X8597682Y-10494198D01*
X8597682Y-10494198D02*
X8607205Y-10484674D01*
X8607205Y-10484674D02*
X8607205Y-10503722D01*
D11*
X6855000Y-10877000D02*
X6975000Y-10997000D01*
X6975000Y-10877000D02*
X6855000Y-10997000D01*
D10*
X7340539Y-11028484D02*
X7226253Y-11028484D01*
X7283396Y-11028484D02*
X7283396Y-10828484D01*
X7283396Y-10828484D02*
X7264348Y-10857055D01*
X7264348Y-10857055D02*
X7245301Y-10876103D01*
X7245301Y-10876103D02*
X7226253Y-10885627D01*
X7426253Y-11009436D02*
X7435777Y-11018960D01*
X7435777Y-11018960D02*
X7426253Y-11028484D01*
X7426253Y-11028484D02*
X7416729Y-11018960D01*
X7416729Y-11018960D02*
X7426253Y-11009436D01*
X7426253Y-11009436D02*
X7426253Y-11028484D01*
X7511967Y-10847531D02*
X7521491Y-10838008D01*
X7521491Y-10838008D02*
X7540539Y-10828484D01*
X7540539Y-10828484D02*
X7588158Y-10828484D01*
X7588158Y-10828484D02*
X7607205Y-10838008D01*
X7607205Y-10838008D02*
X7616729Y-10847531D01*
X7616729Y-10847531D02*
X7626253Y-10866579D01*
X7626253Y-10866579D02*
X7626253Y-10885627D01*
X7626253Y-10885627D02*
X7616729Y-10914198D01*
X7616729Y-10914198D02*
X7502443Y-11028484D01*
X7502443Y-11028484D02*
X7626253Y-11028484D01*
X7750062Y-10828484D02*
X7769110Y-10828484D01*
X7769110Y-10828484D02*
X7788158Y-10838008D01*
X7788158Y-10838008D02*
X7797682Y-10847531D01*
X7797682Y-10847531D02*
X7807205Y-10866579D01*
X7807205Y-10866579D02*
X7816729Y-10904674D01*
X7816729Y-10904674D02*
X7816729Y-10952293D01*
X7816729Y-10952293D02*
X7807205Y-10990389D01*
X7807205Y-10990389D02*
X7797682Y-11009436D01*
X7797682Y-11009436D02*
X7788158Y-11018960D01*
X7788158Y-11018960D02*
X7769110Y-11028484D01*
X7769110Y-11028484D02*
X7750062Y-11028484D01*
X7750062Y-11028484D02*
X7731015Y-11018960D01*
X7731015Y-11018960D02*
X7721491Y-11009436D01*
X7721491Y-11009436D02*
X7711967Y-10990389D01*
X7711967Y-10990389D02*
X7702443Y-10952293D01*
X7702443Y-10952293D02*
X7702443Y-10904674D01*
X7702443Y-10904674D02*
X7711967Y-10866579D01*
X7711967Y-10866579D02*
X7721491Y-10847531D01*
X7721491Y-10847531D02*
X7731015Y-10838008D01*
X7731015Y-10838008D02*
X7750062Y-10828484D01*
X7940539Y-10828484D02*
X7959586Y-10828484D01*
X7959586Y-10828484D02*
X7978634Y-10838008D01*
X7978634Y-10838008D02*
X7988158Y-10847531D01*
X7988158Y-10847531D02*
X7997682Y-10866579D01*
X7997682Y-10866579D02*
X8007205Y-10904674D01*
X8007205Y-10904674D02*
X8007205Y-10952293D01*
X8007205Y-10952293D02*
X7997682Y-10990389D01*
X7997682Y-10990389D02*
X7988158Y-11009436D01*
X7988158Y-11009436D02*
X7978634Y-11018960D01*
X7978634Y-11018960D02*
X7959586Y-11028484D01*
X7959586Y-11028484D02*
X7940539Y-11028484D01*
X7940539Y-11028484D02*
X7921491Y-11018960D01*
X7921491Y-11018960D02*
X7911967Y-11009436D01*
X7911967Y-11009436D02*
X7902443Y-10990389D01*
X7902443Y-10990389D02*
X7892920Y-10952293D01*
X7892920Y-10952293D02*
X7892920Y-10904674D01*
X7892920Y-10904674D02*
X7902443Y-10866579D01*
X7902443Y-10866579D02*
X7911967Y-10847531D01*
X7911967Y-10847531D02*
X7921491Y-10838008D01*
X7921491Y-10838008D02*
X7940539Y-10828484D01*
X8092920Y-11028484D02*
X8092920Y-10895150D01*
X8092920Y-10914198D02*
X8102443Y-10904674D01*
X8102443Y-10904674D02*
X8121491Y-10895150D01*
X8121491Y-10895150D02*
X8150063Y-10895150D01*
X8150063Y-10895150D02*
X8169110Y-10904674D01*
X8169110Y-10904674D02*
X8178634Y-10923722D01*
X8178634Y-10923722D02*
X8178634Y-11028484D01*
X8178634Y-10923722D02*
X8188158Y-10904674D01*
X8188158Y-10904674D02*
X8207205Y-10895150D01*
X8207205Y-10895150D02*
X8235777Y-10895150D01*
X8235777Y-10895150D02*
X8254824Y-10904674D01*
X8254824Y-10904674D02*
X8264348Y-10923722D01*
X8264348Y-10923722D02*
X8264348Y-11028484D01*
X8359586Y-11028484D02*
X8359586Y-10895150D01*
X8359586Y-10914198D02*
X8369110Y-10904674D01*
X8369110Y-10904674D02*
X8388158Y-10895150D01*
X8388158Y-10895150D02*
X8416729Y-10895150D01*
X8416729Y-10895150D02*
X8435777Y-10904674D01*
X8435777Y-10904674D02*
X8445301Y-10923722D01*
X8445301Y-10923722D02*
X8445301Y-11028484D01*
X8445301Y-10923722D02*
X8454825Y-10904674D01*
X8454825Y-10904674D02*
X8473872Y-10895150D01*
X8473872Y-10895150D02*
X8502444Y-10895150D01*
X8502444Y-10895150D02*
X8521491Y-10904674D01*
X8521491Y-10904674D02*
X8531015Y-10923722D01*
X8531015Y-10923722D02*
X8531015Y-11028484D01*
X8921491Y-10818960D02*
X8750063Y-11076103D01*
X9178634Y-10828484D02*
X9197682Y-10828484D01*
X9197682Y-10828484D02*
X9216729Y-10838008D01*
X9216729Y-10838008D02*
X9226253Y-10847531D01*
X9226253Y-10847531D02*
X9235777Y-10866579D01*
X9235777Y-10866579D02*
X9245301Y-10904674D01*
X9245301Y-10904674D02*
X9245301Y-10952293D01*
X9245301Y-10952293D02*
X9235777Y-10990389D01*
X9235777Y-10990389D02*
X9226253Y-11009436D01*
X9226253Y-11009436D02*
X9216729Y-11018960D01*
X9216729Y-11018960D02*
X9197682Y-11028484D01*
X9197682Y-11028484D02*
X9178634Y-11028484D01*
X9178634Y-11028484D02*
X9159587Y-11018960D01*
X9159587Y-11018960D02*
X9150063Y-11009436D01*
X9150063Y-11009436D02*
X9140539Y-10990389D01*
X9140539Y-10990389D02*
X9131015Y-10952293D01*
X9131015Y-10952293D02*
X9131015Y-10904674D01*
X9131015Y-10904674D02*
X9140539Y-10866579D01*
X9140539Y-10866579D02*
X9150063Y-10847531D01*
X9150063Y-10847531D02*
X9159587Y-10838008D01*
X9159587Y-10838008D02*
X9178634Y-10828484D01*
X9331015Y-11009436D02*
X9340539Y-11018960D01*
X9340539Y-11018960D02*
X9331015Y-11028484D01*
X9331015Y-11028484D02*
X9321491Y-11018960D01*
X9321491Y-11018960D02*
X9331015Y-11009436D01*
X9331015Y-11009436D02*
X9331015Y-11028484D01*
X9464348Y-10828484D02*
X9483396Y-10828484D01*
X9483396Y-10828484D02*
X9502444Y-10838008D01*
X9502444Y-10838008D02*
X9511968Y-10847531D01*
X9511968Y-10847531D02*
X9521491Y-10866579D01*
X9521491Y-10866579D02*
X9531015Y-10904674D01*
X9531015Y-10904674D02*
X9531015Y-10952293D01*
X9531015Y-10952293D02*
X9521491Y-10990389D01*
X9521491Y-10990389D02*
X9511968Y-11009436D01*
X9511968Y-11009436D02*
X9502444Y-11018960D01*
X9502444Y-11018960D02*
X9483396Y-11028484D01*
X9483396Y-11028484D02*
X9464348Y-11028484D01*
X9464348Y-11028484D02*
X9445301Y-11018960D01*
X9445301Y-11018960D02*
X9435777Y-11009436D01*
X9435777Y-11009436D02*
X9426253Y-10990389D01*
X9426253Y-10990389D02*
X9416729Y-10952293D01*
X9416729Y-10952293D02*
X9416729Y-10904674D01*
X9416729Y-10904674D02*
X9426253Y-10866579D01*
X9426253Y-10866579D02*
X9435777Y-10847531D01*
X9435777Y-10847531D02*
X9445301Y-10838008D01*
X9445301Y-10838008D02*
X9464348Y-10828484D01*
X9702444Y-10895150D02*
X9702444Y-11028484D01*
X9654825Y-10818960D02*
X9607206Y-10961817D01*
X9607206Y-10961817D02*
X9731015Y-10961817D01*
X9788158Y-10828484D02*
X9921491Y-10828484D01*
X9921491Y-10828484D02*
X9835777Y-11028484D01*
X9988158Y-10847531D02*
X9997682Y-10838008D01*
X9997682Y-10838008D02*
X10016729Y-10828484D01*
X10016729Y-10828484D02*
X10064349Y-10828484D01*
X10064349Y-10828484D02*
X10083396Y-10838008D01*
X10083396Y-10838008D02*
X10092920Y-10847531D01*
X10092920Y-10847531D02*
X10102444Y-10866579D01*
X10102444Y-10866579D02*
X10102444Y-10885627D01*
X10102444Y-10885627D02*
X10092920Y-10914198D01*
X10092920Y-10914198D02*
X9978634Y-11028484D01*
X9978634Y-11028484D02*
X10102444Y-11028484D01*
X10178634Y-10828484D02*
X10178634Y-10866579D01*
X10254825Y-10828484D02*
X10254825Y-10866579D01*
X10550063Y-11104674D02*
X10540539Y-11095150D01*
X10540539Y-11095150D02*
X10521491Y-11066579D01*
X10521491Y-11066579D02*
X10511968Y-11047531D01*
X10511968Y-11047531D02*
X10502444Y-11018960D01*
X10502444Y-11018960D02*
X10492920Y-10971341D01*
X10492920Y-10971341D02*
X10492920Y-10933246D01*
X10492920Y-10933246D02*
X10502444Y-10885627D01*
X10502444Y-10885627D02*
X10511968Y-10857055D01*
X10511968Y-10857055D02*
X10521491Y-10838008D01*
X10521491Y-10838008D02*
X10540539Y-10809436D01*
X10540539Y-10809436D02*
X10550063Y-10799912D01*
X10711968Y-10895150D02*
X10711968Y-11028484D01*
X10664349Y-10818960D02*
X10616730Y-10961817D01*
X10616730Y-10961817D02*
X10740539Y-10961817D01*
X10969111Y-11028484D02*
X10969111Y-10828484D01*
X11054825Y-11028484D02*
X11054825Y-10923722D01*
X11054825Y-10923722D02*
X11045301Y-10904674D01*
X11045301Y-10904674D02*
X11026253Y-10895150D01*
X11026253Y-10895150D02*
X10997682Y-10895150D01*
X10997682Y-10895150D02*
X10978634Y-10904674D01*
X10978634Y-10904674D02*
X10969111Y-10914198D01*
X11178634Y-11028484D02*
X11159587Y-11018960D01*
X11159587Y-11018960D02*
X11150063Y-11009436D01*
X11150063Y-11009436D02*
X11140539Y-10990389D01*
X11140539Y-10990389D02*
X11140539Y-10933246D01*
X11140539Y-10933246D02*
X11150063Y-10914198D01*
X11150063Y-10914198D02*
X11159587Y-10904674D01*
X11159587Y-10904674D02*
X11178634Y-10895150D01*
X11178634Y-10895150D02*
X11207206Y-10895150D01*
X11207206Y-10895150D02*
X11226253Y-10904674D01*
X11226253Y-10904674D02*
X11235777Y-10914198D01*
X11235777Y-10914198D02*
X11245301Y-10933246D01*
X11245301Y-10933246D02*
X11245301Y-10990389D01*
X11245301Y-10990389D02*
X11235777Y-11009436D01*
X11235777Y-11009436D02*
X11226253Y-11018960D01*
X11226253Y-11018960D02*
X11207206Y-11028484D01*
X11207206Y-11028484D02*
X11178634Y-11028484D01*
X11359587Y-11028484D02*
X11340539Y-11018960D01*
X11340539Y-11018960D02*
X11331015Y-10999912D01*
X11331015Y-10999912D02*
X11331015Y-10828484D01*
X11511968Y-11018960D02*
X11492920Y-11028484D01*
X11492920Y-11028484D02*
X11454825Y-11028484D01*
X11454825Y-11028484D02*
X11435777Y-11018960D01*
X11435777Y-11018960D02*
X11426253Y-10999912D01*
X11426253Y-10999912D02*
X11426253Y-10923722D01*
X11426253Y-10923722D02*
X11435777Y-10904674D01*
X11435777Y-10904674D02*
X11454825Y-10895150D01*
X11454825Y-10895150D02*
X11492920Y-10895150D01*
X11492920Y-10895150D02*
X11511968Y-10904674D01*
X11511968Y-10904674D02*
X11521491Y-10923722D01*
X11521491Y-10923722D02*
X11521491Y-10942770D01*
X11521491Y-10942770D02*
X11426253Y-10961817D01*
X11597682Y-11018960D02*
X11616730Y-11028484D01*
X11616730Y-11028484D02*
X11654825Y-11028484D01*
X11654825Y-11028484D02*
X11673872Y-11018960D01*
X11673872Y-11018960D02*
X11683396Y-10999912D01*
X11683396Y-10999912D02*
X11683396Y-10990389D01*
X11683396Y-10990389D02*
X11673872Y-10971341D01*
X11673872Y-10971341D02*
X11654825Y-10961817D01*
X11654825Y-10961817D02*
X11626253Y-10961817D01*
X11626253Y-10961817D02*
X11607206Y-10952293D01*
X11607206Y-10952293D02*
X11597682Y-10933246D01*
X11597682Y-10933246D02*
X11597682Y-10923722D01*
X11597682Y-10923722D02*
X11607206Y-10904674D01*
X11607206Y-10904674D02*
X11626253Y-10895150D01*
X11626253Y-10895150D02*
X11654825Y-10895150D01*
X11654825Y-10895150D02*
X11673872Y-10904674D01*
X11750063Y-11104674D02*
X11759587Y-11095150D01*
X11759587Y-11095150D02*
X11778634Y-11066579D01*
X11778634Y-11066579D02*
X11788158Y-11047531D01*
X11788158Y-11047531D02*
X11797682Y-11018960D01*
X11797682Y-11018960D02*
X11807206Y-10971341D01*
X11807206Y-10971341D02*
X11807206Y-10933246D01*
X11807206Y-10933246D02*
X11797682Y-10885627D01*
X11797682Y-10885627D02*
X11788158Y-10857055D01*
X11788158Y-10857055D02*
X11778634Y-10838008D01*
X11778634Y-10838008D02*
X11759587Y-10809436D01*
X11759587Y-10809436D02*
X11750063Y-10799912D01*
X12111968Y-11104674D02*
X12102444Y-11095150D01*
X12102444Y-11095150D02*
X12083396Y-11066579D01*
X12083396Y-11066579D02*
X12073872Y-11047531D01*
X12073872Y-11047531D02*
X12064349Y-11018960D01*
X12064349Y-11018960D02*
X12054825Y-10971341D01*
X12054825Y-10971341D02*
X12054825Y-10933246D01*
X12054825Y-10933246D02*
X12064349Y-10885627D01*
X12064349Y-10885627D02*
X12073872Y-10857055D01*
X12073872Y-10857055D02*
X12083396Y-10838008D01*
X12083396Y-10838008D02*
X12102444Y-10809436D01*
X12102444Y-10809436D02*
X12111968Y-10799912D01*
X12188158Y-10895150D02*
X12188158Y-11028484D01*
X12188158Y-10914198D02*
X12197682Y-10904674D01*
X12197682Y-10904674D02*
X12216730Y-10895150D01*
X12216730Y-10895150D02*
X12245301Y-10895150D01*
X12245301Y-10895150D02*
X12264349Y-10904674D01*
X12264349Y-10904674D02*
X12273872Y-10923722D01*
X12273872Y-10923722D02*
X12273872Y-11028484D01*
X12397682Y-11028484D02*
X12378634Y-11018960D01*
X12378634Y-11018960D02*
X12369111Y-11009436D01*
X12369111Y-11009436D02*
X12359587Y-10990389D01*
X12359587Y-10990389D02*
X12359587Y-10933246D01*
X12359587Y-10933246D02*
X12369111Y-10914198D01*
X12369111Y-10914198D02*
X12378634Y-10904674D01*
X12378634Y-10904674D02*
X12397682Y-10895150D01*
X12397682Y-10895150D02*
X12426253Y-10895150D01*
X12426253Y-10895150D02*
X12445301Y-10904674D01*
X12445301Y-10904674D02*
X12454825Y-10914198D01*
X12454825Y-10914198D02*
X12464349Y-10933246D01*
X12464349Y-10933246D02*
X12464349Y-10990389D01*
X12464349Y-10990389D02*
X12454825Y-11009436D01*
X12454825Y-11009436D02*
X12445301Y-11018960D01*
X12445301Y-11018960D02*
X12426253Y-11028484D01*
X12426253Y-11028484D02*
X12397682Y-11028484D01*
X12521492Y-10895150D02*
X12597682Y-10895150D01*
X12550063Y-10828484D02*
X12550063Y-10999912D01*
X12550063Y-10999912D02*
X12559587Y-11018960D01*
X12559587Y-11018960D02*
X12578634Y-11028484D01*
X12578634Y-11028484D02*
X12597682Y-11028484D01*
X12816730Y-10895150D02*
X12816730Y-11095150D01*
X12816730Y-10904674D02*
X12835777Y-10895150D01*
X12835777Y-10895150D02*
X12873873Y-10895150D01*
X12873873Y-10895150D02*
X12892920Y-10904674D01*
X12892920Y-10904674D02*
X12902444Y-10914198D01*
X12902444Y-10914198D02*
X12911968Y-10933246D01*
X12911968Y-10933246D02*
X12911968Y-10990389D01*
X12911968Y-10990389D02*
X12902444Y-11009436D01*
X12902444Y-11009436D02*
X12892920Y-11018960D01*
X12892920Y-11018960D02*
X12873873Y-11028484D01*
X12873873Y-11028484D02*
X12835777Y-11028484D01*
X12835777Y-11028484D02*
X12816730Y-11018960D01*
X13026253Y-11028484D02*
X13007206Y-11018960D01*
X13007206Y-11018960D02*
X12997682Y-10999912D01*
X12997682Y-10999912D02*
X12997682Y-10828484D01*
X13188158Y-11028484D02*
X13188158Y-10923722D01*
X13188158Y-10923722D02*
X13178634Y-10904674D01*
X13178634Y-10904674D02*
X13159587Y-10895150D01*
X13159587Y-10895150D02*
X13121492Y-10895150D01*
X13121492Y-10895150D02*
X13102444Y-10904674D01*
X13188158Y-11018960D02*
X13169111Y-11028484D01*
X13169111Y-11028484D02*
X13121492Y-11028484D01*
X13121492Y-11028484D02*
X13102444Y-11018960D01*
X13102444Y-11018960D02*
X13092920Y-10999912D01*
X13092920Y-10999912D02*
X13092920Y-10980865D01*
X13092920Y-10980865D02*
X13102444Y-10961817D01*
X13102444Y-10961817D02*
X13121492Y-10952293D01*
X13121492Y-10952293D02*
X13169111Y-10952293D01*
X13169111Y-10952293D02*
X13188158Y-10942770D01*
X13254825Y-10895150D02*
X13331015Y-10895150D01*
X13283396Y-10828484D02*
X13283396Y-10999912D01*
X13283396Y-10999912D02*
X13292920Y-11018960D01*
X13292920Y-11018960D02*
X13311968Y-11028484D01*
X13311968Y-11028484D02*
X13331015Y-11028484D01*
X13473873Y-11018960D02*
X13454825Y-11028484D01*
X13454825Y-11028484D02*
X13416730Y-11028484D01*
X13416730Y-11028484D02*
X13397682Y-11018960D01*
X13397682Y-11018960D02*
X13388158Y-10999912D01*
X13388158Y-10999912D02*
X13388158Y-10923722D01*
X13388158Y-10923722D02*
X13397682Y-10904674D01*
X13397682Y-10904674D02*
X13416730Y-10895150D01*
X13416730Y-10895150D02*
X13454825Y-10895150D01*
X13454825Y-10895150D02*
X13473873Y-10904674D01*
X13473873Y-10904674D02*
X13483396Y-10923722D01*
X13483396Y-10923722D02*
X13483396Y-10942770D01*
X13483396Y-10942770D02*
X13388158Y-10961817D01*
X13654825Y-11028484D02*
X13654825Y-10828484D01*
X13654825Y-11018960D02*
X13635777Y-11028484D01*
X13635777Y-11028484D02*
X13597682Y-11028484D01*
X13597682Y-11028484D02*
X13578634Y-11018960D01*
X13578634Y-11018960D02*
X13569111Y-11009436D01*
X13569111Y-11009436D02*
X13559587Y-10990389D01*
X13559587Y-10990389D02*
X13559587Y-10933246D01*
X13559587Y-10933246D02*
X13569111Y-10914198D01*
X13569111Y-10914198D02*
X13578634Y-10904674D01*
X13578634Y-10904674D02*
X13597682Y-10895150D01*
X13597682Y-10895150D02*
X13635777Y-10895150D01*
X13635777Y-10895150D02*
X13654825Y-10904674D01*
X13731015Y-11104674D02*
X13740539Y-11095150D01*
X13740539Y-11095150D02*
X13759587Y-11066579D01*
X13759587Y-11066579D02*
X13769111Y-11047531D01*
X13769111Y-11047531D02*
X13778634Y-11018960D01*
X13778634Y-11018960D02*
X13788158Y-10971341D01*
X13788158Y-10971341D02*
X13788158Y-10933246D01*
X13788158Y-10933246D02*
X13778634Y-10885627D01*
X13778634Y-10885627D02*
X13769111Y-10857055D01*
X13769111Y-10857055D02*
X13759587Y-10838008D01*
X13759587Y-10838008D02*
X13740539Y-10809436D01*
X13740539Y-10809436D02*
X13731015Y-10799912D01*
M02*
