%TF.GenerationSoftware,KiCad,Pcbnew,7.0.9*%
%TF.CreationDate,2025-01-11T11:52:04-05:00*%
%TF.ProjectId,PropellerClock,50726f70-656c-46c6-9572-436c6f636b2e,rev?*%
%TF.SameCoordinates,Original*%
%TF.FileFunction,Copper,L1,Top*%
%TF.FilePolarity,Positive*%
%FSLAX46Y46*%
G04 Gerber Fmt 4.6, Leading zero omitted, Abs format (unit mm)*
G04 Created by KiCad (PCBNEW 7.0.9) date 2025-01-11 11:52:04*
%MOMM*%
%LPD*%
G01*
G04 APERTURE LIST*
G04 Aperture macros list*
%AMRoundRect*
0 Rectangle with rounded corners*
0 $1 Rounding radius*
0 $2 $3 $4 $5 $6 $7 $8 $9 X,Y pos of 4 corners*
0 Add a 4 corners polygon primitive as box body*
4,1,4,$2,$3,$4,$5,$6,$7,$8,$9,$2,$3,0*
0 Add four circle primitives for the rounded corners*
1,1,$1+$1,$2,$3*
1,1,$1+$1,$4,$5*
1,1,$1+$1,$6,$7*
1,1,$1+$1,$8,$9*
0 Add four rect primitives between the rounded corners*
20,1,$1+$1,$2,$3,$4,$5,0*
20,1,$1+$1,$4,$5,$6,$7,0*
20,1,$1+$1,$6,$7,$8,$9,0*
20,1,$1+$1,$8,$9,$2,$3,0*%
G04 Aperture macros list end*
%TA.AperFunction,ComponentPad*%
%ADD10C,1.600000*%
%TD*%
%TA.AperFunction,ComponentPad*%
%ADD11O,1.600000X1.600000*%
%TD*%
%TA.AperFunction,SMDPad,CuDef*%
%ADD12RoundRect,0.250001X0.624999X-0.462499X0.624999X0.462499X-0.624999X0.462499X-0.624999X-0.462499X0*%
%TD*%
%TA.AperFunction,ComponentPad*%
%ADD13R,1.500000X1.050000*%
%TD*%
%TA.AperFunction,ComponentPad*%
%ADD14O,1.500000X1.050000*%
%TD*%
%TA.AperFunction,SMDPad,CuDef*%
%ADD15RoundRect,0.150000X0.150000X-0.875000X0.150000X0.875000X-0.150000X0.875000X-0.150000X-0.875000X0*%
%TD*%
%TA.AperFunction,ComponentPad*%
%ADD16R,1.574800X1.574800*%
%TD*%
%TA.AperFunction,ComponentPad*%
%ADD17C,1.574800*%
%TD*%
%TA.AperFunction,ViaPad*%
%ADD18C,0.800000*%
%TD*%
%TA.AperFunction,Conductor*%
%ADD19C,0.250000*%
%TD*%
G04 APERTURE END LIST*
D10*
%TO.P,R1,1*%
%TO.N,Net-(D10-K)*%
X130028800Y-83566000D03*
D11*
%TO.P,R1,2*%
%TO.N,Net-(MS1-GND)*%
X130028800Y-93726000D03*
%TD*%
D12*
%TO.P,D16,1,K*%
%TO.N,Net-(D16-K)*%
X79767400Y-79821100D03*
%TO.P,D16,2,A*%
%TO.N,Net-(D16-A)*%
X79767400Y-76846100D03*
%TD*%
D10*
%TO.P,R14,1*%
%TO.N,Net-(D6-A)*%
X148463000Y-87299800D03*
D11*
%TO.P,R14,2*%
%TO.N,Net-(MS1-A0)*%
X158623000Y-87299800D03*
%TD*%
D12*
%TO.P,D3,1,K*%
%TO.N,Net-(D3-K)*%
X92688200Y-79871900D03*
%TO.P,D3,2,A*%
%TO.N,Net-(D3-A)*%
X92688200Y-76896900D03*
%TD*%
D10*
%TO.P,R6,1*%
%TO.N,Net-(D15-K)*%
X109778800Y-83566000D03*
D11*
%TO.P,R6,2*%
%TO.N,Net-(MS1-GND)*%
X109778800Y-93726000D03*
%TD*%
%TO.P,R18,2*%
%TO.N,Net-(D6-A)*%
X148361400Y-82194400D03*
D10*
%TO.P,R18,1*%
%TO.N,Net-(MS1-SDA)*%
X158521400Y-82194400D03*
%TD*%
D12*
%TO.P,D2,1,K*%
%TO.N,Net-(D2-K)*%
X88324600Y-79871900D03*
%TO.P,D2,2,A*%
%TO.N,Net-(D2-A)*%
X88324600Y-76896900D03*
%TD*%
D10*
%TO.P,R10,1*%
%TO.N,Net-(D3-K)*%
X92710000Y-83540600D03*
D11*
%TO.P,R10,2*%
%TO.N,Net-(MS1-GND)*%
X92710000Y-93700600D03*
%TD*%
D13*
%TO.P,U2,1,VCC*%
%TO.N,Net-(D6-A)*%
X210286600Y-88061800D03*
D14*
%TO.P,U2,2,GND*%
%TO.N,Net-(MS1-GND)*%
X210286600Y-86791800D03*
%TO.P,U2,3,OUT*%
%TO.N,Net-(MS1-A0)*%
X210286600Y-85521800D03*
%TD*%
D12*
%TO.P,D11,1,K*%
%TO.N,Net-(D11-K)*%
X125992800Y-79414700D03*
%TO.P,D11,2,A*%
%TO.N,Net-(D11-A)*%
X125992800Y-76439700D03*
%TD*%
%TO.P,D15,1,K*%
%TO.N,Net-(D15-K)*%
X109813000Y-79846500D03*
%TO.P,D15,2,A*%
%TO.N,Net-(D15-A)*%
X109813000Y-76871500D03*
%TD*%
%TO.P,D14,1,K*%
%TO.N,Net-(D14-K)*%
X114046000Y-79795700D03*
%TO.P,D14,2,A*%
%TO.N,Net-(D14-A)*%
X114046000Y-76820700D03*
%TD*%
%TO.P,D13,1,K*%
%TO.N,Net-(D13-K)*%
X117890200Y-79795700D03*
%TO.P,D13,2,A*%
%TO.N,Net-(D13-A)*%
X117890200Y-76820700D03*
%TD*%
%TO.P,D1,1,K*%
%TO.N,Net-(D1-K)*%
X84300000Y-79744900D03*
%TO.P,D1,2,A*%
%TO.N,Net-(D1-A)*%
X84300000Y-76769900D03*
%TD*%
D10*
%TO.P,R5,1*%
%TO.N,Net-(D14-K)*%
X113828800Y-83566000D03*
D11*
%TO.P,R5,2*%
%TO.N,Net-(MS1-GND)*%
X113828800Y-93726000D03*
%TD*%
D10*
%TO.P,R8,1*%
%TO.N,Net-(D1-K)*%
X84251800Y-83540600D03*
D11*
%TO.P,R8,2*%
%TO.N,Net-(MS1-GND)*%
X84251800Y-93700600D03*
%TD*%
D12*
%TO.P,D4,1,K*%
%TO.N,Net-(D4-K)*%
X96941400Y-79871900D03*
%TO.P,D4,2,A*%
%TO.N,Net-(D4-A)*%
X96941400Y-76896900D03*
%TD*%
D10*
%TO.P,R7,1*%
%TO.N,Net-(D16-K)*%
X79781400Y-83540600D03*
D11*
%TO.P,R7,2*%
%TO.N,Net-(MS1-GND)*%
X79781400Y-93700600D03*
%TD*%
%TO.P,R17,2*%
%TO.N,Net-(MS1-GND)*%
X144703800Y-88163400D03*
D10*
%TO.P,R17,1*%
%TO.N,Net-(D9-K)*%
X134543800Y-88163400D03*
%TD*%
%TO.P,R12,1*%
%TO.N,Net-(D5-K)*%
X101015800Y-83540600D03*
D11*
%TO.P,R12,2*%
%TO.N,Net-(MS1-GND)*%
X101015800Y-93700600D03*
%TD*%
D10*
%TO.P,R13,1*%
%TO.N,Net-(D6-K)*%
X105511600Y-83566000D03*
D11*
%TO.P,R13,2*%
%TO.N,Net-(MS1-GND)*%
X105511600Y-93726000D03*
%TD*%
D12*
%TO.P,D10,1,K*%
%TO.N,Net-(D10-K)*%
X129828200Y-79440100D03*
%TO.P,D10,2,A*%
%TO.N,Net-(D10-A)*%
X129828200Y-76465100D03*
%TD*%
D15*
%TO.P,U3,1,32KHZ*%
%TO.N,unconnected-(U3-32KHZ-Pad1)*%
X190830200Y-90222600D03*
%TO.P,U3,2,VCC*%
%TO.N,Net-(D6-A)*%
X192100200Y-90222600D03*
%TO.P,U3,3,~{INT}/SQW*%
%TO.N,unconnected-(U3-~{INT}{slash}SQW-Pad3)*%
X193370200Y-90222600D03*
%TO.P,U3,4,~{RST}*%
%TO.N,unconnected-(U3-~{RST}-Pad4)*%
X194640200Y-90222600D03*
%TO.P,U3,5,GND*%
%TO.N,Net-(MS1-GND)*%
X195910200Y-90222600D03*
%TO.P,U3,6,GND*%
X197180200Y-90222600D03*
%TO.P,U3,7,GND*%
X198450200Y-90222600D03*
%TO.P,U3,8,GND*%
X199720200Y-90222600D03*
%TO.P,U3,9,GND*%
X199720200Y-80922600D03*
%TO.P,U3,10,GND*%
X198450200Y-80922600D03*
%TO.P,U3,11,GND*%
X197180200Y-80922600D03*
%TO.P,U3,12,GND*%
X195910200Y-80922600D03*
%TO.P,U3,13,GND*%
X194640200Y-80922600D03*
%TO.P,U3,14,VBAT*%
%TO.N,Net-(U3-VBAT)*%
X193370200Y-80922600D03*
%TO.P,U3,15,SDA*%
%TO.N,Net-(MS1-SDA)*%
X192100200Y-80922600D03*
%TO.P,U3,16,SCL*%
%TO.N,Net-(MS1-SCL)*%
X190830200Y-80922600D03*
%TD*%
D16*
%TO.P,MS1,1,~{RST}*%
%TO.N,unconnected-(MS1-~{RST}-Pad1)*%
X140436600Y-92964000D03*
D17*
%TO.P,MS1,2,3V*%
%TO.N,Net-(D6-A)*%
X142976600Y-92964000D03*
%TO.P,MS1,3,AREF*%
%TO.N,unconnected-(MS1-AREF-Pad3)*%
X145516600Y-92964000D03*
%TO.P,MS1,4,GND*%
%TO.N,Net-(MS1-GND)*%
X148056600Y-92964000D03*
%TO.P,MS1,5,A0*%
%TO.N,Net-(MS1-A0)*%
X150596600Y-92964000D03*
%TO.P,MS1,6,A1*%
%TO.N,Net-(D5-A)*%
X153136600Y-92964000D03*
%TO.P,MS1,7,A2*%
%TO.N,Net-(D4-A)*%
X155676600Y-92964000D03*
%TO.P,MS1,8,A3*%
%TO.N,Net-(D3-A)*%
X158216600Y-92964000D03*
%TO.P,MS1,9,A4*%
%TO.N,Net-(D2-A)*%
X160756600Y-92964000D03*
%TO.P,MS1,10,A5*%
%TO.N,Net-(D1-A)*%
X163296600Y-92964000D03*
%TO.P,MS1,11,SCK*%
%TO.N,unconnected-(MS1-SCK-Pad11)*%
X165836600Y-92964000D03*
%TO.P,MS1,12,MO*%
%TO.N,unconnected-(MS1-MO-Pad12)*%
X168376600Y-92964000D03*
%TO.P,MS1,13,MI*%
%TO.N,unconnected-(MS1-MI-Pad13)*%
X170916600Y-92964000D03*
%TO.P,MS1,14,RX*%
%TO.N,unconnected-(MS1-RX-Pad14)*%
X173456600Y-92964000D03*
%TO.P,MS1,15,TX*%
%TO.N,unconnected-(MS1-TX-Pad15)*%
X175996600Y-92964000D03*
%TO.P,MS1,16,D4*%
%TO.N,Net-(D16-A)*%
X178536600Y-92964000D03*
%TO.P,MS1,17,SDA*%
%TO.N,Net-(MS1-SDA)*%
X181076600Y-92964000D03*
%TO.P,MS1,18,SCL*%
%TO.N,Net-(MS1-SCL)*%
X181076600Y-77724000D03*
%TO.P,MS1,19,5*%
%TO.N,Net-(D15-A)*%
X178536600Y-77724000D03*
%TO.P,MS1,20,6*%
%TO.N,Net-(D14-A)*%
X175996600Y-77724000D03*
%TO.P,MS1,21,9*%
%TO.N,Net-(D13-A)*%
X173456600Y-77724000D03*
%TO.P,MS1,22,10*%
%TO.N,Net-(D12-A)*%
X170916600Y-77724000D03*
%TO.P,MS1,23,11*%
%TO.N,Net-(D11-A)*%
X168376600Y-77724000D03*
%TO.P,MS1,24,12*%
%TO.N,Net-(D10-A)*%
X165836600Y-77724000D03*
%TO.P,MS1,25,13*%
%TO.N,Net-(D9-A)*%
X163296600Y-77724000D03*
%TO.P,MS1,26,USB*%
%TO.N,unconnected-(MS1-USB-Pad26)*%
X160756600Y-77724000D03*
%TO.P,MS1,27,EN*%
%TO.N,unconnected-(MS1-EN-Pad27)*%
X158216600Y-77724000D03*
%TO.P,MS1,28,VBAT*%
%TO.N,unconnected-(MS1-VBAT-Pad28)*%
X155676600Y-77724000D03*
%TO.P,MS1,29*%
%TO.N,N/C*%
X153136600Y-77724000D03*
%TO.P,MS1,30*%
X150596600Y-77724000D03*
%TO.P,MS1,31*%
X148056600Y-77724000D03*
%TO.P,MS1,32*%
X145516600Y-77724000D03*
%TO.P,MS1,33*%
X142976600Y-77724000D03*
%TO.P,MS1,34*%
X140436600Y-77724000D03*
%TD*%
D10*
%TO.P,R11,1*%
%TO.N,Net-(D4-K)*%
X96977200Y-83540600D03*
D11*
%TO.P,R11,2*%
%TO.N,Net-(MS1-GND)*%
X96977200Y-93700600D03*
%TD*%
D12*
%TO.P,D6,1,K*%
%TO.N,Net-(D6-K)*%
X105549400Y-80100500D03*
%TO.P,D6,2,A*%
%TO.N,Net-(D6-A)*%
X105549400Y-77125500D03*
%TD*%
D10*
%TO.P,R4,1*%
%TO.N,Net-(D13-K)*%
X117878800Y-83566000D03*
D11*
%TO.P,R4,2*%
%TO.N,Net-(MS1-GND)*%
X117878800Y-93726000D03*
%TD*%
D12*
%TO.P,D9,1,K*%
%TO.N,Net-(D9-K)*%
X134645400Y-85561500D03*
%TO.P,D9,2,A*%
%TO.N,Net-(D9-A)*%
X134645400Y-82586500D03*
%TD*%
%TO.P,D5,1,K*%
%TO.N,Net-(D5-K)*%
X101042200Y-80024300D03*
%TO.P,D5,2,A*%
%TO.N,Net-(D5-A)*%
X101042200Y-77049300D03*
%TD*%
D10*
%TO.P,R3,1*%
%TO.N,Net-(D12-K)*%
X121928800Y-83566000D03*
D11*
%TO.P,R3,2*%
%TO.N,Net-(MS1-GND)*%
X121928800Y-93726000D03*
%TD*%
D10*
%TO.P,R2,1*%
%TO.N,Net-(D11-K)*%
X125978800Y-83566000D03*
D11*
%TO.P,R2,2*%
%TO.N,Net-(MS1-GND)*%
X125978800Y-93726000D03*
%TD*%
D12*
%TO.P,D12,1,K*%
%TO.N,Net-(D12-K)*%
X121979600Y-79414700D03*
%TO.P,D12,2,A*%
%TO.N,Net-(D12-A)*%
X121979600Y-76439700D03*
%TD*%
D10*
%TO.P,R9,1*%
%TO.N,Net-(D2-K)*%
X88315800Y-83540600D03*
D11*
%TO.P,R9,2*%
%TO.N,Net-(MS1-GND)*%
X88315800Y-93700600D03*
%TD*%
D10*
%TO.P,R16,1*%
%TO.N,Net-(MS1-SCL)*%
X174853600Y-87223600D03*
D11*
%TO.P,R16,2*%
%TO.N,Net-(D6-A)*%
X164693600Y-87223600D03*
%TD*%
D18*
%TO.N,Net-(D1-A)*%
X84328000Y-74777600D03*
%TO.N,Net-(D2-A)*%
X88315800Y-74142600D03*
%TO.N,Net-(D3-A)*%
X92786200Y-74244200D03*
%TO.N,Net-(D4-A)*%
X97155000Y-74980800D03*
%TO.N,Net-(D5-A)*%
X101168200Y-74879200D03*
%TO.N,Net-(D6-A)*%
X187934600Y-88188800D03*
X106172000Y-75234800D03*
%TO.N,Net-(D16-A)*%
X79756000Y-75031600D03*
%TO.N,Net-(MS1-GND)*%
X187883800Y-85547200D03*
X162966400Y-85420200D03*
%TO.N,Net-(MS1-SDA)*%
X188112400Y-83185000D03*
%TO.N,Net-(U3-VBAT)*%
X203225400Y-80721200D03*
%TD*%
D19*
%TO.N,Net-(D11-A)*%
X126314200Y-74955400D02*
X125992800Y-75276800D01*
X125992800Y-75276800D02*
X125992800Y-76439700D01*
X167716200Y-74955400D02*
X126314200Y-74955400D01*
X168376600Y-77724000D02*
X168376600Y-75615800D01*
X168376600Y-75615800D02*
X167716200Y-74955400D01*
%TO.N,Net-(D12-A)*%
X121979600Y-74540200D02*
X121979600Y-76439700D01*
X122428000Y-74091800D02*
X121979600Y-74540200D01*
X170891200Y-74828400D02*
X170154600Y-74091800D01*
X170916600Y-74828400D02*
X170891200Y-74828400D01*
X170916600Y-77724000D02*
X170916600Y-74828400D01*
X170154600Y-74091800D02*
X122428000Y-74091800D01*
%TO.N,Net-(D13-A)*%
X117890200Y-74108400D02*
X117890200Y-76820700D01*
X118760450Y-73238150D02*
X117890200Y-74108400D01*
X172425150Y-73238150D02*
X118760450Y-73238150D01*
X173456600Y-74269600D02*
X172425150Y-73238150D01*
X173456600Y-77724000D02*
X173456600Y-74269600D01*
%TO.N,Net-(D14-A)*%
X114198400Y-73126600D02*
X114198400Y-76668300D01*
X114935000Y-72390000D02*
X114198400Y-73126600D01*
X175056800Y-72390000D02*
X114935000Y-72390000D01*
X175996600Y-77724000D02*
X175996600Y-73329800D01*
X175996600Y-73329800D02*
X175056800Y-72390000D01*
%TO.N,Net-(D15-A)*%
X178536600Y-72466200D02*
X178536600Y-77724000D01*
X177723800Y-71653400D02*
X178536600Y-72466200D01*
X110617000Y-71653400D02*
X177723800Y-71653400D01*
X109813000Y-72457400D02*
X110617000Y-71653400D01*
X109813000Y-76871500D02*
X109813000Y-72457400D01*
%TO.N,Net-(D9-A)*%
X134823200Y-79222600D02*
X134696200Y-79349600D01*
X134696200Y-79349600D02*
X134696200Y-81508600D01*
X134696200Y-81508600D02*
X134670800Y-81534000D01*
X162509200Y-79222600D02*
X134823200Y-79222600D01*
X163296600Y-77724000D02*
X163296600Y-78435200D01*
X163296600Y-78435200D02*
X162509200Y-79222600D01*
X134670800Y-81534000D02*
X134670800Y-82561100D01*
%TO.N,Net-(D10-A)*%
X130575900Y-75717400D02*
X129828200Y-76465100D01*
X165836600Y-76276200D02*
X165277800Y-75717400D01*
X165277800Y-75717400D02*
X130575900Y-75717400D01*
X165836600Y-77724000D02*
X165836600Y-76276200D01*
%TO.N,Net-(D9-K)*%
X134543800Y-88163400D02*
X134543800Y-85663100D01*
%TO.N,Net-(MS1-GND)*%
X105511600Y-93726000D02*
X79806800Y-93726000D01*
%TO.N,Net-(D1-K)*%
X84300000Y-79744900D02*
X84300000Y-83492400D01*
%TO.N,Net-(D1-A)*%
X84328000Y-74777600D02*
X84328000Y-76741900D01*
%TO.N,Net-(D2-K)*%
X88324600Y-79871900D02*
X88324600Y-83531800D01*
%TO.N,Net-(D2-A)*%
X88315800Y-74142600D02*
X88315800Y-76888100D01*
%TO.N,Net-(D3-K)*%
X92688200Y-79871900D02*
X92688200Y-83518800D01*
%TO.N,Net-(D3-A)*%
X92786200Y-74244200D02*
X92786200Y-76798900D01*
%TO.N,Net-(D4-K)*%
X96941400Y-79871900D02*
X96941400Y-83504800D01*
%TO.N,Net-(D4-A)*%
X97155000Y-74980800D02*
X97155000Y-76683300D01*
%TO.N,Net-(D5-K)*%
X101042200Y-80024300D02*
X101042200Y-83514200D01*
%TO.N,Net-(D5-A)*%
X101042200Y-75005200D02*
X101042200Y-77049300D01*
X101168200Y-74879200D02*
X101042200Y-75005200D01*
%TO.N,Net-(D6-K)*%
X105549400Y-80100500D02*
X105549400Y-83528200D01*
%TO.N,Net-(D6-A)*%
X148463000Y-87299800D02*
X148463000Y-86436200D01*
X210286600Y-88061800D02*
X210286600Y-92151200D01*
X150977600Y-83921600D02*
X149631400Y-85267800D01*
X192100200Y-90222600D02*
X192100200Y-88366600D01*
X148463000Y-86436200D02*
X149631400Y-85267800D01*
X192836800Y-92862400D02*
X192100200Y-92125800D01*
X164160200Y-83921600D02*
X150977600Y-83921600D01*
X191871600Y-88138000D02*
X187985400Y-88138000D01*
X164693600Y-87223600D02*
X164693600Y-84455000D01*
X187985400Y-88138000D02*
X187934600Y-88188800D01*
X105549400Y-77125500D02*
X105549400Y-75857400D01*
X192100200Y-92125800D02*
X192100200Y-90222600D01*
X209575400Y-92862400D02*
X192836800Y-92862400D01*
X192100200Y-88366600D02*
X191871600Y-88138000D01*
X148361400Y-83997800D02*
X149631400Y-85267800D01*
X210286600Y-92151200D02*
X209575400Y-92862400D01*
X164693600Y-84455000D02*
X164160200Y-83921600D01*
X105549400Y-75857400D02*
X106172000Y-75234800D01*
X148361400Y-82194400D02*
X148361400Y-83997800D01*
%TO.N,Net-(D10-K)*%
X130028800Y-83566000D02*
X130028800Y-79640700D01*
%TO.N,Net-(D11-K)*%
X125992800Y-79414700D02*
X125992800Y-83552000D01*
%TO.N,Net-(D12-K)*%
X121979600Y-79414700D02*
X121979600Y-83515200D01*
%TO.N,Net-(D13-K)*%
X117890200Y-79795700D02*
X117890200Y-83554600D01*
%TO.N,Net-(D14-K)*%
X113953200Y-79948100D02*
X113953200Y-83441600D01*
%TO.N,Net-(D15-K)*%
X109813000Y-79795700D02*
X109813000Y-83531800D01*
%TO.N,Net-(D16-K)*%
X79776200Y-79592500D02*
X79776200Y-83535400D01*
%TO.N,Net-(D16-A)*%
X79756000Y-75031600D02*
X79756000Y-76834700D01*
%TO.N,Net-(MS1-GND)*%
X151104600Y-85445600D02*
X150266400Y-86283800D01*
X194640200Y-84912200D02*
X194640200Y-80922600D01*
X193878200Y-85674200D02*
X188010800Y-85674200D01*
X150266400Y-89941400D02*
X149733000Y-90474800D01*
X199720200Y-90222600D02*
X195910200Y-90222600D01*
X162941000Y-85445600D02*
X151104600Y-85445600D01*
X149733000Y-90474800D02*
X148996400Y-90474800D01*
X148996400Y-90474800D02*
X131241800Y-90474800D01*
X198450200Y-80922600D02*
X197180200Y-80922600D01*
X131241800Y-90474800D02*
X129946400Y-91770200D01*
X194640200Y-84912200D02*
X193878200Y-85674200D01*
X201041000Y-86791800D02*
X199720200Y-88112600D01*
X148818600Y-90474800D02*
X148056600Y-91236800D01*
X129946400Y-91770200D02*
X129946400Y-93643600D01*
X148056600Y-91236800D02*
X148056600Y-92964000D01*
X199720200Y-88315800D02*
X199720200Y-90222600D01*
X199720200Y-90222600D02*
X199720200Y-80922600D01*
X199720200Y-80922600D02*
X198450200Y-80922600D01*
X148996400Y-90474800D02*
X148818600Y-90474800D01*
X150266400Y-86283800D02*
X150266400Y-89941400D01*
X210286600Y-86791800D02*
X201041000Y-86791800D01*
X162966400Y-85420200D02*
X162941000Y-85445600D01*
X199720200Y-88112600D02*
X199720200Y-88315800D01*
X130028800Y-93726000D02*
X105511600Y-93726000D01*
X197180200Y-80922600D02*
X195910200Y-80922600D01*
X195910200Y-80922600D02*
X194640200Y-80922600D01*
X188010800Y-85674200D02*
X187883800Y-85547200D01*
%TO.N,Net-(MS1-SDA)*%
X192100200Y-80922600D02*
X192100200Y-82651600D01*
X186486800Y-84810600D02*
X186486800Y-90932000D01*
X186486800Y-90932000D02*
X185902600Y-91516200D01*
X182524400Y-91516200D02*
X181076600Y-92964000D01*
X185902600Y-91516200D02*
X182524400Y-91516200D01*
X188112400Y-83185000D02*
X186486800Y-84810600D01*
X191566800Y-83185000D02*
X188112400Y-83185000D01*
X192100200Y-82651600D02*
X191566800Y-83185000D01*
%TO.N,Net-(MS1-SCL)*%
X181076600Y-76581000D02*
X181076600Y-77724000D01*
X190398400Y-75209400D02*
X182448200Y-75209400D01*
X190830200Y-75641200D02*
X190398400Y-75209400D01*
X181152800Y-86487000D02*
X180416200Y-87223600D01*
X182448200Y-75209400D02*
X181076600Y-76581000D01*
X174853600Y-87223600D02*
X180416200Y-87223600D01*
X181152800Y-77800200D02*
X181152800Y-86487000D01*
X190830200Y-80922600D02*
X190830200Y-75641200D01*
%TO.N,Net-(U3-VBAT)*%
X203225400Y-79121000D02*
X202260200Y-78155800D01*
X194360800Y-78155800D02*
X193471800Y-79044800D01*
X202260200Y-78155800D02*
X194360800Y-78155800D01*
X203225400Y-80721200D02*
X203225400Y-79121000D01*
X193471800Y-79044800D02*
X193471800Y-80821000D01*
%TD*%
M02*
