%TF.GenerationSoftware,KiCad,Pcbnew,7.0.9*%
%TF.CreationDate,2025-01-11T11:52:05-05:00*%
%TF.ProjectId,PropellerClock,50726f70-656c-46c6-9572-436c6f636b2e,rev?*%
%TF.SameCoordinates,Original*%
%TF.FileFunction,Soldermask,Top*%
%TF.FilePolarity,Negative*%
%FSLAX46Y46*%
G04 Gerber Fmt 4.6, Leading zero omitted, Abs format (unit mm)*
G04 Created by KiCad (PCBNEW 7.0.9) date 2025-01-11 11:52:05*
%MOMM*%
%LPD*%
G01*
G04 APERTURE LIST*
G04 Aperture macros list*
%AMRoundRect*
0 Rectangle with rounded corners*
0 $1 Rounding radius*
0 $2 $3 $4 $5 $6 $7 $8 $9 X,Y pos of 4 corners*
0 Add a 4 corners polygon primitive as box body*
4,1,4,$2,$3,$4,$5,$6,$7,$8,$9,$2,$3,0*
0 Add four circle primitives for the rounded corners*
1,1,$1+$1,$2,$3*
1,1,$1+$1,$4,$5*
1,1,$1+$1,$6,$7*
1,1,$1+$1,$8,$9*
0 Add four rect primitives between the rounded corners*
20,1,$1+$1,$2,$3,$4,$5,0*
20,1,$1+$1,$4,$5,$6,$7,0*
20,1,$1+$1,$6,$7,$8,$9,0*
20,1,$1+$1,$8,$9,$2,$3,0*%
G04 Aperture macros list end*
%ADD10C,1.600000*%
%ADD11O,1.600000X1.600000*%
%ADD12RoundRect,0.250001X0.624999X-0.462499X0.624999X0.462499X-0.624999X0.462499X-0.624999X-0.462499X0*%
%ADD13R,1.500000X1.050000*%
%ADD14O,1.500000X1.050000*%
%ADD15RoundRect,0.150000X0.150000X-0.875000X0.150000X0.875000X-0.150000X0.875000X-0.150000X-0.875000X0*%
%ADD16C,1.200000*%
%ADD17RoundRect,0.102000X0.787400X-0.787400X0.787400X0.787400X-0.787400X0.787400X-0.787400X-0.787400X0*%
%ADD18C,1.778800*%
G04 APERTURE END LIST*
D10*
%TO.C,R1*%
X130028800Y-83566000D03*
D11*
X130028800Y-93726000D03*
%TD*%
D12*
%TO.C,D16*%
X79767400Y-79821100D03*
X79767400Y-76846100D03*
%TD*%
D10*
%TO.C,R14*%
X148463000Y-87299800D03*
D11*
X158623000Y-87299800D03*
%TD*%
D12*
%TO.C,D3*%
X92688200Y-79871900D03*
X92688200Y-76896900D03*
%TD*%
D10*
%TO.C,R6*%
X109778800Y-83566000D03*
D11*
X109778800Y-93726000D03*
%TD*%
%TO.C,R18*%
X148361400Y-82194400D03*
D10*
X158521400Y-82194400D03*
%TD*%
D12*
%TO.C,D2*%
X88324600Y-79871900D03*
X88324600Y-76896900D03*
%TD*%
D10*
%TO.C,R10*%
X92710000Y-83540600D03*
D11*
X92710000Y-93700600D03*
%TD*%
D13*
%TO.C,U2*%
X210286600Y-88061800D03*
D14*
X210286600Y-86791800D03*
X210286600Y-85521800D03*
%TD*%
D12*
%TO.C,D11*%
X125992800Y-79414700D03*
X125992800Y-76439700D03*
%TD*%
%TO.C,D15*%
X109813000Y-79846500D03*
X109813000Y-76871500D03*
%TD*%
%TO.C,D14*%
X114046000Y-79795700D03*
X114046000Y-76820700D03*
%TD*%
%TO.C,D13*%
X117890200Y-79795700D03*
X117890200Y-76820700D03*
%TD*%
%TO.C,D1*%
X84300000Y-79744900D03*
X84300000Y-76769900D03*
%TD*%
D10*
%TO.C,R5*%
X113828800Y-83566000D03*
D11*
X113828800Y-93726000D03*
%TD*%
D10*
%TO.C,R8*%
X84251800Y-83540600D03*
D11*
X84251800Y-93700600D03*
%TD*%
D12*
%TO.C,D4*%
X96941400Y-79871900D03*
X96941400Y-76896900D03*
%TD*%
D10*
%TO.C,R7*%
X79781400Y-83540600D03*
D11*
X79781400Y-93700600D03*
%TD*%
%TO.C,R17*%
X144703800Y-88163400D03*
D10*
X134543800Y-88163400D03*
%TD*%
%TO.C,R12*%
X101015800Y-83540600D03*
D11*
X101015800Y-93700600D03*
%TD*%
D10*
%TO.C,R13*%
X105511600Y-83566000D03*
D11*
X105511600Y-93726000D03*
%TD*%
D12*
%TO.C,D10*%
X129828200Y-79440100D03*
X129828200Y-76465100D03*
%TD*%
D15*
%TO.C,U3*%
X190830200Y-90222600D03*
X192100200Y-90222600D03*
X193370200Y-90222600D03*
X194640200Y-90222600D03*
X195910200Y-90222600D03*
X197180200Y-90222600D03*
X198450200Y-90222600D03*
X199720200Y-90222600D03*
X199720200Y-80922600D03*
X198450200Y-80922600D03*
X197180200Y-80922600D03*
X195910200Y-80922600D03*
X194640200Y-80922600D03*
X193370200Y-80922600D03*
X192100200Y-80922600D03*
X190830200Y-80922600D03*
%TD*%
D16*
%TO.C,MS1*%
X137896600Y-92964000D03*
X183616600Y-92964000D03*
X137896600Y-77724000D03*
X183616600Y-77724000D03*
D17*
X140436600Y-92964000D03*
D18*
X142976600Y-92964000D03*
X145516600Y-92964000D03*
X148056600Y-92964000D03*
X150596600Y-92964000D03*
X153136600Y-92964000D03*
X155676600Y-92964000D03*
X158216600Y-92964000D03*
X160756600Y-92964000D03*
X163296600Y-92964000D03*
X165836600Y-92964000D03*
X168376600Y-92964000D03*
X170916600Y-92964000D03*
X173456600Y-92964000D03*
X175996600Y-92964000D03*
X178536600Y-92964000D03*
X181076600Y-92964000D03*
X181076600Y-77724000D03*
X178536600Y-77724000D03*
X175996600Y-77724000D03*
X173456600Y-77724000D03*
X170916600Y-77724000D03*
X168376600Y-77724000D03*
X165836600Y-77724000D03*
X163296600Y-77724000D03*
X160756600Y-77724000D03*
X158216600Y-77724000D03*
X155676600Y-77724000D03*
X153136600Y-77724000D03*
X150596600Y-77724000D03*
X148056600Y-77724000D03*
X145516600Y-77724000D03*
X142976600Y-77724000D03*
X140436600Y-77724000D03*
%TD*%
D10*
%TO.C,R11*%
X96977200Y-83540600D03*
D11*
X96977200Y-93700600D03*
%TD*%
D12*
%TO.C,D6*%
X105549400Y-80100500D03*
X105549400Y-77125500D03*
%TD*%
D10*
%TO.C,R4*%
X117878800Y-83566000D03*
D11*
X117878800Y-93726000D03*
%TD*%
D12*
%TO.C,D9*%
X134645400Y-85561500D03*
X134645400Y-82586500D03*
%TD*%
%TO.C,D5*%
X101042200Y-80024300D03*
X101042200Y-77049300D03*
%TD*%
D10*
%TO.C,R3*%
X121928800Y-83566000D03*
D11*
X121928800Y-93726000D03*
%TD*%
D10*
%TO.C,R2*%
X125978800Y-83566000D03*
D11*
X125978800Y-93726000D03*
%TD*%
D12*
%TO.C,D12*%
X121979600Y-79414700D03*
X121979600Y-76439700D03*
%TD*%
D10*
%TO.C,R9*%
X88315800Y-83540600D03*
D11*
X88315800Y-93700600D03*
%TD*%
D10*
%TO.C,R16*%
X174853600Y-87223600D03*
D11*
X164693600Y-87223600D03*
%TD*%
M02*
